<?xml version="1.0" encoding="UTF-8"?>
<svg id="Layer_2" data-name="Layer 2" xmlns="http://www.w3.org/2000/svg" xmlns:xlink="http://www.w3.org/1999/xlink" viewBox="0 0 115.31 49.04">
  <defs>
    <style>
      .cls-1 {
        fill: url(#New_Gradient_Swatch_1);
      }
    </style>
    <linearGradient id="New_Gradient_Swatch_1" data-name="New Gradient Swatch 1" x1="28.98" y1="-1.03" x2="80.77" y2="58.56" gradientUnits="userSpaceOnUse">
      <stop offset="0" stop-color="#ff7b5d"/>
      <stop offset="1" stop-color="#ff32ac"/>
    </linearGradient>
  </defs>
  <g id="Logo">
    <g>
      <path class="cls-1" d="M23.76,27.33c-1.82,2.83-5.14,4.75-9.07,6.19-2.54,6.19-6.05,13.49-9.94,15.31-1.15.43-2.35.24-3.36-1.1-.67-1.01-1.39-2.26-1.39-3.74,0-4.32,4.66-9.26,10.51-11.28l.62-1.58c-1.06.72-2.3,1.2-3.6,1.2-2.74,0-4.32-1.97-4.32-4.85,0-6.86,8.11-14.79,12.82-14.79,1.58,0,2.64.86,3.07,2.02.19-.34.48-.82.77-1.34.58-1.1,1.44-1.06,2.06-.34.43.53.77,1.44.77,2.45,0,1.3-.53,2.59-1.73,4.99-1.54,3.02-3.46,6.53-5.04,10.18,2.98-1.82,5.38-3.84,7.25-6.43.62-.82,1.49-.82,1.49.24,0,.77-.19,1.78-.91,2.88ZM4.61,40.73c-1.39,2.35-2.02,4.61-1.54,5.04.43.34,1.63-1.1,3.12-3.7.96-1.68,2.02-3.79,2.93-6.19-2.02,1.44-3.5,3.17-4.51,4.85ZM14.26,23.4c1.87-3.26,2.74-5.62,2.74-6.86,0-.58-.14-.86-.48-.86-1.63,0-9.02,7.54-9.02,13.1,0,.91.19,1.54.62,1.54,1.54.05,3.79-2.88,6.14-6.91Z"/>
      <path class="cls-1" d="M35.47,12.55c1.73,0,2.78.86,3.22,2.11l.91-1.49c.58-.96,1.39-1.01,1.97-.34.82.96,1.25,3.07,0,5.57-1.25,2.64-5.28,7.87-5.28,11.09,0,.72.19,1.15.67,1.15,1.73,0,4.13-3.26,5.71-6.38.53-.96.96-1.01,1.44,0,.19.43.48,1.73-.19,3.12-1.25,2.64-4.32,5.18-7.25,5.18-2.4,0-3.79-1.25-4.18-3.02-1.39,1.34-3.55,2.83-5.47,2.83-2.83,0-4.37-2.06-4.37-4.9,0-2.06.86-4.75,2.59-7.15,3.84-5.52,7.78-7.78,10.23-7.78ZM33.79,23.3c1.87-3.26,2.74-5.62,2.74-6.86,0-.58-.1-.91-.58-.91-.96,0-4.27,3.02-6.72,6.96-1.44,2.26-2.26,4.8-2.26,6.34,0,.86.19,1.44.67,1.44,1.58,0,3.79-2.93,6.14-6.96Z"/>
      <path class="cls-1" d="M51.26,15.24c0,.38-.05.82-.14,1.3,2.06-2.02,4.75-3.84,6.29-3.84s2.54,1.73,2.54,3.74c2.16-1.92,4.7-3.55,6.24-3.5,1.39.05,2.16,1.34,2.16,2.93s-1.01,3.84-2.98,6.86c-1.34,2.06-2.59,4.18-2.59,5.86,0,1.1.48,1.87,1.25,1.87,1.49,0,3.84-3.36,5.62-6.29.43-.72.91-.77,1.34-.34.53.53.58,2.35,0,3.46-1.34,2.78-4.75,5.18-7.73,5.18-3.26,0-5.04-1.78-5.04-4.37,0-.86.19-1.92.72-3.12.77-1.63,2.35-4.22,3.46-5.95,1.06-1.58,2.21-3.02,1.82-3.02s-1.39.48-4.22,3.31c-3.74,3.74-6.05,8.3-8.06,12.77-.48.91-1.15,1.06-1.92.29-.72-.72-1.06-1.39-1.06-2.64,0-.82.38-2.35.86-3.55.67-1.73,2.26-4.32,3.55-6.34,1.3-2.16,2.64-3.98,2.21-3.98-.38,0-2.26,1.06-5.14,4.22-2.69,2.88-4.9,7.25-6.77,11.67-.34.77-.86,1.06-1.68.34-.67-.58-1.15-1.44-1.15-2.54,0-.67.14-1.49.53-2.59,1.01-2.88,4.46-9.55,7.39-14.02.62-.91,1.34-.86,1.82,0,.43.72.67,1.54.67,2.3Z"/>
      <path class="cls-1" d="M84.62,24.45c-2.26,4.99-5.28,7.78-8.26,7.78-2.3,0-3.94-.96-4.9-2.54l-.96,2.11c-.43.91-1.01,1.06-1.63.24-.77-1.06-1.3-2.35-.29-5.42,1.39-4.22,9.75-19.87,13.78-25.83.72-1.06,1.39-1.06,2.02.05.34.58.48,1.25.48,2.02,0,1.3-.53,3.17-1.68,5.23-.72,1.3-1.92,3.12-3.31,5.57.86-.48,1.92-.86,2.69-.86,2.64,0,3.79,1.92,3.79,4.66,0,1.92-.53,4.42-1.73,7.01ZM81.6,15.28c-.58,0-1.49.53-2.78,1.78-2.02,2.11-4.18,5.95-5.95,9.6.1,1.39.91,2.83,1.87,2.83,1.34,0,3.22-1.49,5.62-6.38,1.39-2.74,1.92-4.8,1.92-6.19,0-1.06-.14-1.63-.67-1.63Z"/>
      <path class="cls-1" d="M102.91,7.99c-1.49,5.71-6.72,11.38-10.95,14.21-.96,2.45-1.58,4.61-1.58,6.29,0,1.15.29,1.97.91,1.97,2.21,0,4.99-3.22,6.82-6.67.62-1.2,1.68-1.2,2.02.05.19.72.14,1.82-.48,3.12-.72,1.44-4.27,5.38-8.3,5.38-2.93,0-4.75-1.68-4.75-4.99,0-.82.1-1.78.34-2.74,1.87-7.97,7.3-16.85,12-21.79.91-.91,1.78-1.2,2.69-.34,1.06.91,1.58,2.26,1.58,3.5,0,.67-.05,1.2-.29,2.02ZM97.44,11.78c-1.25,2.11-3.36,5.71-3.7,6.53,2.06-2.02,3.7-4.22,4.8-6.1,1.63-2.74,2.26-4.85,1.97-5.04-.19-.1-1.44,1.78-3.07,4.61Z"/>
      <path class="cls-1" d="M107.23,12.4c0,.91-.34,2.3-.86,3.84,1.15-.29,2.45-.96,3.89-2.02.82-.58,1.3-.67,1.92-.05.67.67,1.39,1.92,1.39,3.07,0,.58-.24,1.25-.77,1.87-2.59,2.98-5.33,6.77-5.33,9.6,0,1.25.38,2.02,1.06,2.02,1.63,0,3.55-2.69,5.04-6,.38-.86,1.06-.91,1.49-.05.34.67.38,1.82-.14,3.12-1.15,2.74-3.98,4.8-6.72,4.8-2.93,0-4.51-2.06-4.51-4.66,0-3.07,2.54-6.77,4.94-9.7-1.25.53-2.45.72-3.5.77-3.6,6.24-6.34,10.66-7.01,13.97-.19.86-.82,1.3-1.68.38-.82-.77-1.2-1.78-1.2-2.83s.34-2.21,1.01-3.46c.82-1.54,3.26-5.47,5.9-8.74-.58-.53-.91-1.15-.91-1.78,0-2.45,3.07-5.86,4.56-5.86,1.01,0,1.44.58,1.44,1.68Z"/>
    </g>
  </g>
</svg>